<?xml version="1.0" encoding="iso-8859-1"?>
<!-- Generator: Adobe Illustrator 19.0.0, SVG Export Plug-In . SVG Version: 6.00 Build 0)  -->
<svg version="1.1" id="Layer_1" xmlns="http://www.w3.org/2000/svg" xmlns:xlink="http://www.w3.org/1999/xlink" x="0px" y="0px"
	 viewBox="0 0 500.004 500.004" style="enable-background:new 0 0 500.004 500.004;" xml:space="preserve">
<g>
	<g>
		<path d="M497.76,428.712h-5.576v-33.204c0-28-23.576-50.78-51.576-50.78l-103.148,0.008c-23.52,0-44.496-19.268-44.496-42.784
			c0-0.024,0-0.013,0-0.001V145.504c15.624-12.68,24.392-31.08,24.392-50.776c0-36.612-29.428-66.408-66.048-66.408
			s-67.184,29.792-67.184,66.408c0,19.7,11.184,38.096,22.904,50.776v156.58c-0.032,11.36-3,23.104-11.036,31.136
			c-8.048,8.052-18.276,13.464-29.668,13.464h-0.012h-102.8c-28,0-51.8,20.828-51.8,48.828v33.204H2.588
			c-2.16,0-2.588,0.532-2.588,2.692v36.696c0,2.16,1.252,3.58,3.416,3.58h493.916c2.156,0,2.672-1.416,2.672-3.58v-37.268
			C500,428.672,499.916,428.712,497.76,428.712z M251.668,121.908c-15.012,0-27.18-12.164-27.18-27.18
			c0-15.008,12.168-27.176,27.18-27.176c15.012,0,27.18,12.168,27.18,27.176C278.848,109.744,266.68,121.908,251.668,121.908z"/>
	</g>
</g>
<g>
</g>
<g>
</g>
<g>
</g>
<g>
</g>
<g>
</g>
<g>
</g>
<g>
</g>
<g>
</g>
<g>
</g>
<g>
</g>
<g>
</g>
<g>
</g>
<g>
</g>
<g>
</g>
<g>
</g>
</svg>
