<?xml version="1.0" encoding="UTF-8" standalone="no"?>
<svg
   xmlns:dc="http://purl.org/dc/elements/1.1/"
   xmlns:cc="http://creativecommons.org/ns#"
   xmlns:rdf="http://www.w3.org/1999/02/22-rdf-syntax-ns#"
   xmlns:svg="http://www.w3.org/2000/svg"
   xmlns="http://www.w3.org/2000/svg"
   xmlns:sodipodi="http://sodipodi.sourceforge.net/DTD/sodipodi-0.dtd"
   xmlns:inkscape="http://www.inkscape.org/namespaces/inkscape"
   width="50.902767mm"
   height="49.061966mm"
   viewBox="0 0 50.902767 49.061966"
   version="1.1"
   id="svg8"
   inkscape:version="1.0.2 (e86c870879, 2021-01-15, custom)"
   sodipodi:docname="pencil-with-line.svg">
  <defs
     id="defs2" />
  <sodipodi:namedview
     id="base"
     pagecolor="#ffffff"
     bordercolor="#666666"
     borderopacity="1.0"
     inkscape:pageopacity="0.0"
     inkscape:pageshadow="2"
     inkscape:zoom="1.979899"
     inkscape:cx="-93.050121"
     inkscape:cy="108.90175"
     inkscape:document-units="mm"
     inkscape:current-layer="layer1"
     inkscape:document-rotation="0"
     showgrid="false"
     inkscape:window-width="1920"
     inkscape:window-height="986"
     inkscape:window-x="-11"
     inkscape:window-y="49"
     inkscape:window-maximized="1" />
  <metadata
     id="metadata5">
    <rdf:RDF>
      <cc:Work
         rdf:about="">
        <dc:format>image/svg+xml</dc:format>
        <dc:type
           rdf:resource="http://purl.org/dc/dcmitype/StillImage" />
        <dc:title></dc:title>
      </cc:Work>
    </rdf:RDF>
  </metadata>
  <g
     inkscape:label="Layer 1"
     inkscape:groupmode="layer"
     id="layer1"
     transform="translate(-8.7579205,-53.624433)">
    <g
       id="g918"
       transform="matrix(0.14841354,0,0,0.14841354,8.7579947,53.624062)">
      <path
         style="fill:#010002"
         d="m 71.915,9.271 c -12.358,-12.358 -32.39,-12.358 -44.747,0 l -17.9,17.9 c -12.358,12.358 -12.358,32.39 0,44.747 l 17.9,17.9 L 89.81,27.176 Z M 197.204,134.56 134.562,197.196 27.168,89.818 89.81,27.176 Z m -22.371,102.912 80.542,17.9 -17.9,-80.542 -40.271,-40.27 -62.642,62.636 z"
         id="path916"
         sodipodi:nodetypes="ccsccccccccccccccc" />
    </g>
    <g
       id="g920"
       transform="matrix(0.26458333,0,0,0.26458333,-16.231648,54.024676)" />
    <g
       id="g922"
       transform="matrix(0.26458333,0,0,0.26458333,-16.231648,54.024676)" />
    <g
       id="g924"
       transform="matrix(0.26458333,0,0,0.26458333,-16.231648,54.024676)" />
    <g
       id="g926"
       transform="matrix(0.26458333,0,0,0.26458333,-16.231648,54.024676)" />
    <g
       id="g928"
       transform="matrix(0.26458333,0,0,0.26458333,-16.231648,54.024676)" />
    <g
       id="g930"
       transform="matrix(0.26458333,0,0,0.26458333,-16.231648,54.024676)" />
    <g
       id="g932"
       transform="matrix(0.26458333,0,0,0.26458333,-16.231648,54.024676)" />
    <g
       id="g934"
       transform="matrix(0.26458333,0,0,0.26458333,-16.231648,54.024676)" />
    <g
       id="g936"
       transform="matrix(0.26458333,0,0,0.26458333,-16.231648,54.024676)" />
    <g
       id="g938"
       transform="matrix(0.26458333,0,0,0.26458333,-16.231648,54.024676)" />
    <g
       id="g940"
       transform="matrix(0.26458333,0,0,0.26458333,-16.231648,54.024676)" />
    <g
       id="g942"
       transform="matrix(0.26458333,0,0,0.26458333,-16.231648,54.024676)" />
    <g
       id="g944"
       transform="matrix(0.26458333,0,0,0.26458333,-16.231648,54.024676)" />
    <g
       id="g946"
       transform="matrix(0.26458333,0,0,0.26458333,-16.231648,54.024676)" />
    <g
       id="g948"
       transform="matrix(0.26458333,0,0,0.26458333,-16.231648,54.024676)" />
    <path
       style="fill:none;stroke:#000000;stroke-width:0.965;stroke-linecap:butt;stroke-linejoin:miter;stroke-miterlimit:4;stroke-dasharray:none;stroke-opacity:1"
       d="m 46.659101,91.524724 -7.160591,7.953883 19.371281,-6.874441 -3.496281,9.921874 v 0"
       id="path125" />
  </g>
</svg>
