<?xml version="1.0" encoding="utf-8"?>
<!-- Svg Vector Icons : http://www.onlinewebfonts.com/icon -->
<!DOCTYPE svg PUBLIC "-//W3C//DTD SVG 1.1//EN" "http://www.w3.org/Graphics/SVG/1.1/DTD/svg11.dtd">
<svg version="1.1" xmlns="http://www.w3.org/2000/svg" xmlns:xlink="http://www.w3.org/1999/xlink" x="0px" y="0px" viewBox="0 0 1000 1000" enable-background="new 0 0 1000 1000" xml:space="preserve">
<metadata> Svg Vector Icons : http://www.onlinewebfonts.com/icon </metadata>
<g><g transform="translate(0.000000,511.000000) scale(0.100000,-0.100000)"><path d="M1384.7,4979.6c-145.1-53.1-247.4-139-314.8-269.8c-47-87.9-57.2-132.9-57.2-253.5c2-239.2,20.4-265.8,613.3-860.6l531.5-531.5l-419.1-419.1c-521.3-521.3-509-468.1-198.3-780.9c224.9-231,308.7-292.3,368-273.9c18.4,6.1,592.8,570.4,1277.7,1255.2c962.9,962.9,1240.9,1253.1,1240.9,1292c0,69.5-500.8,572.4-572.4,572.4c-36.8,0-157.4-108.3-474.3-423.2l-425.2-423.2l-527.4,525.4c-564.2,562.2-617.4,601-827.9,619.4C1527.8,5014.4,1458.3,5004.2,1384.7,4979.6z"/><path d="M3946.2,3156.1L3844,3053.9L5923,972.9l2077-2079l-18.4-337.3c-16.4-312.8-16.4-341.4,18.4-388.4c51.1-67.5,151.3-77.7,204.4-24.5c42.9,42.9,49.1,94,77.7,625.5l12.3,243.3l-2124,2124l-2122,2122L3946.2,3156.1z"/><path d="M2862.7,2072.7l-102.2-102.2l2122-2121.9l2119.9-2119.9l139,4.1c521.3,16.4,682.8,30.7,721.6,69.5c51.1,51.1,49.1,151.3-4.1,204.4c-40.9,40.9-55.2,40.9-390.5,26.6l-347.5-14.3l-2079,2079l-2077,2077L2862.7,2072.7z"/><path d="M5847.4-323.2c742.1-746.2,1359.4-1361.5,1369.7-1369.7c24.5-18.4,368,2,431.3,26.6c38.8,14.3,45,36.8,57.3,235.1l14.3,220.8L6599.6-90.2L5479.4,1030.1h-490.6h-488.6L5847.4-323.2z"/><path d="M8094-2398.2c-59.3-182-149.2-327.1-408.9-654.2c-208.5-261.7-298.5-400.7-370-582.6c-47-114.5-51.1-147.2-42.9-327.1c8.2-171.7,18.4-216.7,75.6-333.2c171.7-347.5,552-547.9,917.9-482.5c267.8,47,496.8,206.5,611.3,425.2c83.8,157.4,110.4,263.7,110.4,443.6c0,253.5-89.9,431.3-435.4,864.7c-237.1,298.5-357.7,478.4-384.3,578.5C8143.1-2373.6,8110.4-2345,8094-2398.2z"/></g></g>
</svg>