<svg id="Capa_1" enable-background="new 0 0 483.277 483.277" height="512" viewBox="0 0 483.277 483.277" width="512" xmlns="http://www.w3.org/2000/svg"><g><g id="icon_74_"><path d="m177.05 125.333c-25.416-35.671-17.103-85.193 18.569-110.609s85.193-17.103 110.609 18.569c19.144 26.868 19.655 62.782 1.283 90.184-19.993 28.277-30.441 62.196-29.826 96.822 2.169 54.077 18.54 109.274 70.036 134.079h-212.16c49.139-23.668 66.3-74.987 69.648-126.601 2.665-36.369-7.279-72.546-28.159-102.444z" fill="#f6b863"/><path d="m364.924 361.715v41.902h-246.565v-41.902c0-6.279 5.09-11.368 11.368-11.368h223.829c6.279 0 11.368 5.09 11.368 11.368z" fill="#eaa14e"/><path d="m438.715 449.149v28.441c0 3.141-2.546 5.687-5.687 5.687h-382.779c-3.141 0-5.687-2.546-5.687-5.687v-28.441z" fill="#828a9e"/><path d="m457.674 411.09v44.689c0 3.141-2.546 5.687-5.687 5.687h-420.697c-3.141 0-5.687-2.546-5.687-5.687v-44.689c0-18.839 15.272-34.111 34.111-34.111h363.849c18.839 0 34.111 15.272 34.111 34.111z" fill="#f6b863"/></g></g></svg>