<svg height="512" viewBox="0 0 128 128" width="512" xmlns="http://www.w3.org/2000/svg"><g><path d="m103.812 93.281h-79.625q-.38 0-.753.026c-7.27.491-11.495 8.526-8.185 15.017l2.942 5.77h91.617l2.943-5.77c3.31-6.491-.915-14.526-8.185-15.017q-.373-.025-.754-.026z" fill="#d261e8"/><path d="m24.437 114.094h79.125a0 0 0 0 1 0 0v6.153a6 6 0 0 1 -6 6h-67.125a6 6 0 0 1 -6-6v-6.153a0 0 0 0 1 0 0z" fill="#fff04a"/><path d="m38.5 81.188h51v12.094h-51z" fill="#393444"/><path d="m84.062 21.81a20.062 20.062 0 1 0 -38.136 8.7c5.73 11.832 8.644 24.831 9.528 37.949l.858 12.729h15.375l.871-12.912c.9-13.357 4.6-26.279 9.887-38.578a19.9 19.9 0 0 0 1.617-7.888z" fill="#635a70"/><path d="m98.875 105.438h-69.75a1.75 1.75 0 1 1 0-3.5h69.75a1.75 1.75 0 0 1 0 3.5z" fill="#a934c4"/></g></svg>