<?xml version="1.0" encoding="iso-8859-1"?>
<!-- Generator: Adobe Illustrator 19.0.0, SVG Export Plug-In . SVG Version: 6.00 Build 0)  -->
<svg version="1.1" id="Capa_1" xmlns="http://www.w3.org/2000/svg" xmlns:xlink="http://www.w3.org/1999/xlink" x="0px" y="0px"
	 viewBox="0 0 512 512" style="enable-background:new 0 0 512 512;" xml:space="preserve">
<path style="fill:#BF6015;" d="M323.5,24.3C304.3,8.699,280.6,0,256,0c-6.301,0-12.9,0.599-19.2,1.8
	c-41.4,7.5-75.899,41.4-83.699,82.8c-5.7,28.2,0.3,57.699,16.5,81.099c18.6,27.001,31.5,63.1,39,108.1l2.701,15.599
	C212.5,296.6,218.8,302,226,302h60c7.2,0,13.5-5.4,14.7-12.601l3.6-21.299c5.7-33.001,18.9-68.899,42.9-111.2
	c9.001-15.601,13.8-33.6,13.8-51.9C361,73.799,347.199,44.399,323.5,24.3z"/>
<path style="fill:#994C10;" d="M286,302h-30V0c24.6,0,48.3,8.699,67.5,24.3C347.199,44.399,361,73.799,361,105
	c0,18.3-4.799,36.299-13.801,51.899c-24,42.301-37.2,78.199-42.9,111.2l-3.6,21.299C299.5,296.6,293.2,302,286,302z"/>
<path style="fill:#FD3018;" d="M436,422H76c-8.401,0-15,6.599-15,15v30c0,24.899,20.099,45,45,45h300c24.901,0,45-20.101,45-45v-30
	C451,428.599,444.401,422,436,422z"/>
<path style="fill:#994C0F;" d="M286,272h-60c-24.901,0-45,20.099-45,45v30c0,8.399,6.599,15,15,15h120c8.401,0,15-6.601,15-15v-30
	C331,292.099,310.901,272,286,272z"/>
<path style="fill:#713708;" d="M316,362h-60v-90h30c24.901,0,45,20.099,45,45v30C331,355.399,324.401,362,316,362z"/>
<path style="fill:#E61E14;" d="M451,437v30c0,24.899-20.099,45-45,45H256v-90h180C444.401,422,451,428.599,451,437z"/>
<path style="fill:#FEA832;" d="M406,332H106c-41.4,0-75,33.6-75,75v30c0,8.399,6.599,15,15,15h420c8.401,0,15-6.601,15-15v-30
	C481,365.6,447.4,332,406,332z"/>
<path style="fill:#FE9923;" d="M481,407v30c0,8.399-6.599,15-15,15H256V332h150C447.4,332,481,365.6,481,407z"/>
<g>
</g>
<g>
</g>
<g>
</g>
<g>
</g>
<g>
</g>
<g>
</g>
<g>
</g>
<g>
</g>
<g>
</g>
<g>
</g>
<g>
</g>
<g>
</g>
<g>
</g>
<g>
</g>
<g>
</g>
</svg>
