<?xml version="1.0" encoding="iso-8859-1"?>
<!-- Generator: Adobe Illustrator 19.0.0, SVG Export Plug-In . SVG Version: 6.00 Build 0)  -->
<svg version="1.1" id="Capa_1" xmlns="http://www.w3.org/2000/svg" xmlns:xlink="http://www.w3.org/1999/xlink" x="0px" y="0px"
	 viewBox="0 0 512 512" style="enable-background:new 0 0 512 512;" xml:space="preserve">
<path style="fill:#FD4E26;" d="M150,272C67.2,272,0,325.699,0,392c0,66.299,67.2,120,150,120s150-53.701,150-120
	C300,325.699,232.8,272,150,272z"/>
<path style="fill:#FD3018;" d="M300,392c0,66.299-67.2,120-150,120V272C232.8,272,300,325.699,300,392z"/>
<path style="fill:#994C0F;" d="M511.57,67.494c-1.8-17.401-9.3-33.301-21.599-45.3c-3.6-3.9-8.101-7.2-12.599-10.201
	c-42.301-27.9-101.1-4.799-113.101,45.3c-5.7,24.3-14.399,41.4-27.001,54l-16.8,16.8c-5.999,6-5.999,15.3,0,21.301l21.301,21.301
	l21,20.999c6,6,15.3,6,21.299,0l22.5-22.5c10.201-10.199,24.901-17.1,43.801-20.4C488.771,141.893,515.77,106.794,511.57,67.494z"/>
<path style="fill:#713708;" d="M450.37,148.793c-18.9,3.3-33.6,10.201-43.801,20.4l-22.5,22.5c-5.999,6-15.298,6-21.299,0
	l-21-20.999l148.2-148.5c12.299,11.999,19.799,27.9,21.599,45.3C515.77,106.794,488.771,141.893,450.37,148.793z"/>
<path style="fill:#BF6015;" d="M384.07,170.694l-21.299-21.301l-21.301-21.301c-29.099-29.099-76.8-29.099-105.899,0
	c-6,6-6,15.3,0,21.301l127.2,127.2c6,6,15.3,6,21.299,0C413.171,247.494,413.171,199.793,384.07,170.694z"/>
<path style="fill:#FD4E26;" d="M384.07,255.593l-63.6-63.9l-63.6-63.6c-17.1-16.8-46.8-16.8-63.9,0l-20.999,21.301
	c-6,6-6,15.3,0,21.301l84.598,84.899h0.3l84.6,84.6c6,6,15.3,6,21.301,0l21.299-21C401.47,301.493,401.47,272.993,384.07,255.593z"
	/>
<path style="fill:#994C10;" d="M384.07,276.593c-5.999,6-15.298,6-21.299,0l-63.6-63.6l63.6-63.6l21.299,21.301
	C413.171,199.793,413.171,247.494,384.07,276.593z"/>
<g>
	<path style="fill:#FD3018;" d="M150,332c-48.9,0-90,27.599-90,60c0,32.399,41.1,60,90,60s90-27.601,90-60
		C240,359.599,198.9,332,150,332z"/>
	<path style="fill:#FD3018;" d="M384.07,255.593c17.401,17.401,17.401,45.901,0,63.6l-21.299,21c-6,6-15.3,6-21.301,0l-84.6-84.6
		l63.6-63.9L384.07,255.593z"/>
</g>
<path style="fill:#E61E14;" d="M240,392c0,32.399-41.1,60-90,60V332C198.9,332,240,359.599,240,392z"/>
<g>
</g>
<g>
</g>
<g>
</g>
<g>
</g>
<g>
</g>
<g>
</g>
<g>
</g>
<g>
</g>
<g>
</g>
<g>
</g>
<g>
</g>
<g>
</g>
<g>
</g>
<g>
</g>
<g>
</g>
</svg>
